HIERARCHY
ROOT Hips
{
	OFFSET 0.000000 1.471914 24.280096
	CHANNELS 6 Xposition Yposition Zposition Xrotation Yrotation Zrotation
	JOINT Spine
	{
		OFFSET 0.000000 0.900110 1.860670
		CHANNELS 6 Xposition Yposition Zposition Xrotation Yrotation Zrotation
		JOINT Spine1
		{
			OFFSET 0.000000 0.400320 2.270309
			CHANNELS 6 Xposition Yposition Zposition Xrotation Yrotation Zrotation
			JOINT Spine2
			{
				OFFSET 0.000000 0.200920 2.296560
				CHANNELS 6 Xposition Yposition Zposition Xrotation Yrotation Zrotation
				JOINT Spine3
				{
					OFFSET 0.000000 0.000000 2.305330
					CHANNELS 6 Xposition Yposition Zposition Xrotation Yrotation Zrotation
					JOINT Neck
					{
						OFFSET 0.000000 -0.864490 6.051487
						CHANNELS 6 Xposition Yposition Zposition Xrotation Yrotation Zrotation
						JOINT Head
						{
							OFFSET 0.000000 -0.550429 3.121674
							CHANNELS 6 Xposition Yposition Zposition Xrotation Yrotation Zrotation
							End Site
							{
								OFFSET 0.000000 0.000000 3.731750
							}
						}
					}
					JOINT RightShoulder
					{
						OFFSET -0.788280 -1.313800 4.256718
						CHANNELS 6 Xposition Yposition Zposition Xrotation Yrotation Zrotation
						JOINT RightArm
						{
							OFFSET -3.915130 0.000000 0.000000
							CHANNELS 6 Xposition Yposition Zposition Xrotation Yrotation Zrotation
							JOINT RightForeArm
							{
								OFFSET -6.914910 0.000000 0.000000
								CHANNELS 6 Xposition Yposition Zposition Xrotation Yrotation Zrotation
								JOINT RightHand
								{
									OFFSET -6.096219 0.000000 0.000000
									CHANNELS 6 Xposition Yposition Zposition Xrotation Yrotation Zrotation
									JOINT RightHandEnd
									{
										OFFSET -1.749950 0.000000 0.000000
										CHANNELS 6 Xposition Yposition Zposition Xrotation Yrotation Zrotation
										End Site
										{
											OFFSET -1.749950 0.000000 0.000000
										}
									}
									JOINT RightHandThumb1
									{
										OFFSET -0.699980 -1.166630 -0.466648
										CHANNELS 6 Xposition Yposition Zposition Xrotation Yrotation Zrotation
										End Site
										{
											OFFSET -1.690319 -0.452920 0.000000
										}
									}
								}
							}
						}
					}
					JOINT LeftShoulder
					{
						OFFSET 0.788280 -1.313800 4.256718
						CHANNELS 6 Xposition Yposition Zposition Xrotation Yrotation Zrotation
						JOINT LeftArm
						{
							OFFSET 3.915130 0.000000 0.000000
							CHANNELS 6 Xposition Yposition Zposition Xrotation Yrotation Zrotation
							JOINT LeftForeArm
							{
								OFFSET 6.914910 0.000000 0.000000
								CHANNELS 6 Xposition Yposition Zposition Xrotation Yrotation Zrotation
								JOINT LeftHand
								{
									OFFSET 6.096219 0.000000 0.000000
									CHANNELS 6 Xposition Yposition Zposition Xrotation Yrotation Zrotation
									JOINT LeftHandEnd
									{
										OFFSET 1.749950 0.000000 0.000000
										CHANNELS 6 Xposition Yposition Zposition Xrotation Yrotation Zrotation
										End Site
										{
											OFFSET 1.749950 0.000000 0.000000
										}
									}
									JOINT LeftHandThumb1
									{
										OFFSET 0.699980 -1.166630 -0.466648
										CHANNELS 6 Xposition Yposition Zposition Xrotation Yrotation Zrotation
										End Site
										{
											OFFSET 1.690319 -0.452920 0.000000
										}
									}
								}
							}
						}
					}
				}
			}
		}
	}
	JOINT RightUpLeg
	{
		OFFSET -2.338570 -0.252550 -0.551512
		CHANNELS 6 Xposition Yposition Zposition Xrotation Yrotation Zrotation
		JOINT RightLeg
		{
			OFFSET 0.000000 0.000000 -10.744959
			CHANNELS 6 Xposition Yposition Zposition Xrotation Yrotation Zrotation
			JOINT RightFoot
			{
				OFFSET 0.000000 -0.000001 -10.930849
				CHANNELS 6 Xposition Yposition Zposition Xrotation Yrotation Zrotation
				JOINT RightToeBase
				{
					OFFSET 0.000000 -4.087269 -1.487650
					CHANNELS 6 Xposition Yposition Zposition Xrotation Yrotation Zrotation
					End Site
					{
						OFFSET 0.000000 -1.891870 0.000000
					}
				}
			}
		}
	}
	JOINT LeftUpLeg
	{
		OFFSET 2.338570 -0.252550 -0.551512
		CHANNELS 6 Xposition Yposition Zposition Xrotation Yrotation Zrotation
		JOINT LeftLeg
		{
			OFFSET 0.000000 0.000000 -10.744959
			CHANNELS 6 Xposition Yposition Zposition Xrotation Yrotation Zrotation
			JOINT LeftFoot
			{
				OFFSET 0.000000 -0.000001 -10.930849
				CHANNELS 6 Xposition Yposition Zposition Xrotation Yrotation Zrotation
				JOINT LeftToeBase
				{
					OFFSET 0.000000 -4.087269 -1.487650
					CHANNELS 6 Xposition Yposition Zposition Xrotation Yrotation Zrotation
					End Site
					{
						OFFSET 0.000000 -1.891870 0.000000
					}
				}
			}
		}
	}
}
MOTION
Frames: 4
Frame Time: 0.041667
-0.000024 27.319357 34.998070 -11.053735 -1.317040 -15.366128 -0.000014 0.900078 1.860686 26.752823 2.861419 -1.960442 0.000010 0.400262 2.270330 -0.000002 -0.000001 0.000011 0.000024 0.200898 2.296566 -0.000001 -0.000001 -0.000000 0.000028 0.000019 2.305332 -0.000050 0.000005 -4.641783 -0.000019 -0.864476 6.051430 -8.712387 -4.919826 173.063989 0.000013 -0.550423 3.121689 -0.000009 -0.000001 -0.000005 -0.788277 -1.313731 4.256823 -138.812066 56.585696 -59.619389 -3.915132 -0.000032 -0.000004 0.000001 -0.000002 -0.000001 -6.914905 -0.000017 0.000002 0.000016 0.000009 -100.718379 -6.096181 0.000027 0.000037 -0.000142 -0.000153 -0.000070 -1.749899 -0.000033 0.000041 -0.000003 0.000000 -0.000001 -0.699962 -1.166628 -0.466655 -0.000010 -0.000005 -0.000007 0.788259 -1.313744 4.256777 25.178353 -112.275497 -130.539586 3.915153 0.000020 -0.000038 0.000006 -0.000001 0.000004 6.914941 -0.000071 -0.000004 0.000018 0.000008 106.014774 6.096216 0.000112 -0.000029 -0.000074 0.000137 0.000020 1.749986 0.000003 0.000037 -0.000002 -0.000002 -0.000002 0.699962 -1.166615 -0.466632 0.000013 0.000002 -0.000024 -2.338575 -0.252542 -0.551487 -48.580834 6.211914 3.262442 0.000011 -0.000022 -10.744959 80.033261 -2.101409 3.280472 -0.000013 0.000083 -10.930832 -0.000007 -0.000006 -0.000000 0.000011 -4.087240 -1.487642 0.000003 0.000003 0.000001 2.338568 -0.252528 -0.551488 -50.100633 3.369055 3.351742 0.000002 -0.000023 -10.744924 78.180094 -0.256043 0.548850 -0.000005 0.000015 -10.930862 -0.000002 -0.000005 -0.000004 -0.000014 -4.087205 -1.487645 0.000000 0.000002 -0.000002 
-0.000021 27.319357 34.998066 -10.986300 -1.341265 -15.309360 -0.000015 0.900077 1.860686 26.685018 2.919254 -1.933798 0.000010 0.400256 2.270332 -0.000001 -0.000001 0.000013 0.000024 0.200903 2.296562 0.000001 -0.000002 0.000002 0.000029 0.000018 2.305336 -0.000045 0.000006 -4.625430 -0.000017 -0.864467 6.051432 -8.854913 -4.840835 172.944133 0.000015 -0.550422 3.121696 -0.000008 -0.000001 -0.000003 -0.788276 -1.313722 4.256827 -138.804812 56.783174 -59.601207 -3.915144 -0.000034 -0.000004 -0.000001 -0.000001 -0.000001 -6.914893 -0.000023 0.000002 0.000015 0.000008 -100.908368 -6.096181 0.000032 0.000033 -0.000143 -0.000150 -0.000072 -1.749894 -0.000035 0.000038 -0.000001 0.000002 -0.000004 -0.699962 -1.166625 -0.466659 -0.000008 -0.000005 -0.000007 0.788259 -1.313738 4.256777 25.267901 -112.763377 -130.492786 3.915156 0.000020 -0.000038 0.000008 0.000001 0.000006 6.914935 -0.000070 -0.000001 0.000021 0.000011 106.215575 6.096212 0.000107 -0.000031 -0.000073 0.000137 0.000016 1.749989 0.000012 0.000026 0.000003 -0.000002 -0.000000 0.699962 -1.166611 -0.466639 0.000015 0.000004 -0.000026 -2.338575 -0.252544 -0.551484 -48.635482 6.284496 3.228725 0.000011 -0.000025 -10.744957 80.013371 -2.078326 3.386724 -0.000012 0.000081 -10.930837 -0.000009 -0.000006 -0.000001 0.000010 -4.087238 -1.487641 0.000001 0.000004 0.000002 2.338567 -0.252529 -0.551484 -50.173426 3.409161 3.317755 0.000004 -0.000023 -10.744919 78.190947 -0.253108 0.623053 -0.000006 0.000012 -10.930864 0.000002 -0.000004 -0.000002 -0.000014 -4.087209 -1.487644 -0.000002 0.000001 -0.000002 
-0.000025 27.319355 34.998074 -11.048452 -1.352298 -15.413657 -0.000015 0.900080 1.860690 26.636194 3.119281 -1.946510 0.000010 0.400262 2.270327 -0.000000 -0.000002 0.000011 0.000023 0.200902 2.296566 -0.000001 -0.000001 0.000001 0.000029 0.000022 2.305336 -0.000049 0.000005 -4.695355 -0.000016 -0.864477 6.051427 -8.883049 -4.823405 172.637567 0.000014 -0.550416 3.121692 -0.000009 -0.000001 -0.000004 -0.788275 -1.313730 4.256827 -138.768639 57.256202 -59.388672 -3.915133 -0.000031 -0.000004 -0.000000 0.000001 -0.000001 -6.914901 -0.000023 0.000001 0.000015 0.000008 -100.865317 -6.096183 0.000024 0.000030 -0.000140 -0.000150 -0.000076 -1.749894 -0.000040 0.000042 0.000001 0.000001 -0.000004 -0.699963 -1.166630 -0.466655 -0.000008 -0.000004 -0.000007 0.788261 -1.313745 4.256777 24.719003 -112.668854 -131.000761 3.915162 0.000020 -0.000035 0.000005 0.000001 0.000005 6.914935 -0.000070 0.000007 0.000015 0.000012 106.399498 6.096213 0.000098 -0.000033 -0.000073 0.000130 0.000015 1.749988 0.000011 0.000030 0.000001 -0.000004 -0.000001 0.699964 -1.166615 -0.466631 0.000013 0.000002 -0.000027 -2.338575 -0.252540 -0.551489 -48.592466 6.255980 3.253324 0.000010 -0.000024 -10.744958 80.073327 -2.037016 3.333365 -0.000010 0.000084 -10.930837 -0.000005 -0.000007 -0.000004 0.000010 -4.087235 -1.487642 -0.000004 0.000003 0.000002 2.338568 -0.252527 -0.551486 -50.045892 3.398616 3.339112 0.000003 -0.000024 -10.744921 78.050648 -0.237011 0.582578 -0.000007 0.000016 -10.930862 0.000000 -0.000003 -0.000002 -0.000015 -4.087204 -1.487645 0.000000 0.000001 -0.000004 
-0.000025 27.319359 34.998062 -11.065278 -1.495206 -15.524914 -0.000015 0.900083 1.860682 26.566721 3.339670 -1.979484 0.000010 0.400255 2.270327 0.000002 -0.000001 0.000010 0.000023 0.200904 2.296562 -0.000001 -0.000001 0.000002 0.000028 0.000024 2.305344 -0.000046 0.000006 -4.621837 -0.000016 -0.864476 6.051428 -8.843288 -4.597283 172.761657 0.000013 -0.550423 3.121689 -0.000009 -0.000001 -0.000002 -0.788273 -1.313732 4.256826 -138.736879 57.354717 -59.356495 -3.915138 -0.000030 -0.000008 -0.000001 0.000001 -0.000001 -6.914907 -0.000017 0.000005 0.000016 0.000010 -100.865857 -6.096181 0.000025 0.000041 -0.000140 -0.000150 -0.000073 -1.749893 -0.000039 0.000038 0.000003 0.000000 -0.000003 -0.699960 -1.166634 -0.466656 -0.000008 -0.000004 -0.000008 0.788257 -1.313746 4.256783 24.482280 -112.721624 -131.635108 3.915161 0.000017 -0.000034 0.000001 -0.000001 0.000004 6.914937 -0.000072 0.000004 0.000015 0.000011 106.024938 6.096216 0.000102 -0.000030 -0.000073 0.000134 0.000015 1.749988 0.000008 0.000026 -0.000000 -0.000003 -0.000002 0.699961 -1.166610 -0.466644 0.000013 -0.000000 -0.000026 -2.338575 -0.252538 -0.551494 -48.615009 6.305539 3.318063 0.000010 -0.000022 -10.744957 80.153827 -1.978073 3.328688 -0.000013 0.000088 -10.930837 -0.000007 -0.000006 -0.000001 0.000010 -4.087235 -1.487642 0.000004 0.000004 0.000001 2.338568 -0.252525 -0.551488 -49.972632 3.455848 3.400088 0.000003 -0.000023 -10.744921 77.948885 -0.103042 0.580742 -0.000006 0.000012 -10.930861 0.000002 -0.000004 -0.000003 -0.000015 -4.087205 -1.487648 0.000003 0.000001 -0.000000 
